<?xml version="1.0" encoding="utf-8"?>
<!-- Generator: Adobe Illustrator 19.1.0, SVG Export Plug-In . SVG Version: 6.00 Build 0)  -->
<svg version="1.1" id="Layer_1" xmlns="http://www.w3.org/2000/svg" xmlns:xlink="http://www.w3.org/1999/xlink" x="0px" y="0px"
	 viewBox="0 0 195.5 52.2" style="enable-background:new 0 0 195.5 52.2;" xml:space="preserve">
<style type="text/css">
	.st0{fill:#13889C;}
	.st1{clip-path:url(#SVGID_2_);fill:#FFFFFF;}
	.st2{clip-path:url(#SVGID_2_);fill:#13889C;}
</style>
<g>
	<path class="st0" d="M57.2,30.1c-0.3-0.3-0.4-0.7-0.4-1.2V14.3c0-0.5,0.1-0.9,0.4-1.1c0.3-0.3,0.7-0.4,1.1-0.4h8.8
		c1,0,1.5,0.4,1.5,1.3c0,0.9-0.5,1.3-1.5,1.3h-7.2v4.8h6.7c1,0,1.5,0.4,1.5,1.3c0,0.9-0.5,1.3-1.5,1.3h-6.7V29
		c0,0.5-0.1,0.9-0.4,1.2c-0.3,0.3-0.7,0.5-1.2,0.5S57.4,30.4,57.2,30.1z"/>
</g>
<g>
	<path class="st0" d="M79.8,19.2C80.6,20,81,21.3,81,23v6.1c0,0.5-0.1,0.8-0.4,1.1s-0.6,0.4-1.1,0.4c-0.4,0-0.8-0.1-1.1-0.4
		c-0.3-0.3-0.4-0.6-0.4-1.1v-0.6c-0.3,0.7-0.7,1.2-1.3,1.5c-0.6,0.4-1.3,0.6-2.1,0.6c-0.8,0-1.6-0.2-2.2-0.5
		c-0.7-0.3-1.2-0.8-1.6-1.4s-0.6-1.2-0.6-2c0-0.9,0.2-1.6,0.7-2.1s1.2-0.9,2.2-1.1s2.5-0.4,4.3-0.4h0.6v-0.6c0-0.8-0.2-1.4-0.5-1.8
		s-0.9-0.6-1.7-0.6c-0.5,0-1,0.1-1.5,0.2c-0.5,0.1-1.1,0.3-1.8,0.6c-0.4,0.2-0.8,0.3-1,0.3c-0.3,0-0.5-0.1-0.7-0.3
		c-0.2-0.2-0.3-0.5-0.3-0.9c0-0.3,0.1-0.5,0.2-0.7c0.1-0.2,0.4-0.4,0.7-0.6c0.6-0.3,1.3-0.6,2.1-0.8c0.8-0.2,1.6-0.3,2.4-0.3
		C77.7,17.9,79,18.3,79.8,19.2z M77.3,27.5c0.5-0.6,0.8-1.3,0.8-2.2v-0.5h-0.5c-1.1,0-2,0-2.6,0.1c-0.6,0.1-1.1,0.3-1.3,0.5
		c-0.3,0.2-0.4,0.6-0.4,1c0,0.5,0.2,1,0.6,1.3s0.8,0.5,1.4,0.5C76.1,28.4,76.8,28.1,77.3,27.5z"/>
	<path class="st0" d="M101.8,19.1c0.7,0.8,1.1,2.1,1.1,3.8v6.2c0,0.5-0.1,0.9-0.4,1.1c-0.3,0.3-0.7,0.4-1.1,0.4
		c-0.5,0-0.8-0.1-1.1-0.4c-0.3-0.3-0.4-0.6-0.4-1.1v-6.2c0-0.9-0.2-1.6-0.5-2c-0.3-0.4-0.8-0.6-1.5-0.6c-0.8,0-1.5,0.3-2,0.8
		c-0.5,0.6-0.7,1.3-0.7,2.3v5.6c0,0.5-0.1,0.9-0.4,1.1c-0.3,0.3-0.7,0.4-1.1,0.4s-0.8-0.1-1.1-0.4c-0.3-0.3-0.5-0.6-0.5-1.1v-6.2
		c0-0.9-0.2-1.6-0.5-2c-0.3-0.4-0.8-0.6-1.5-0.6c-0.8,0-1.5,0.3-1.9,0.8c-0.5,0.6-0.7,1.3-0.7,2.3v5.6c0,0.5-0.2,0.9-0.5,1.1
		c-0.3,0.3-0.7,0.4-1.1,0.4s-0.8-0.1-1.1-0.4c-0.3-0.3-0.4-0.6-0.4-1.1v-9.7c0-0.5,0.2-0.8,0.5-1.1s0.7-0.4,1.1-0.4
		c0.4,0,0.8,0.1,1.1,0.4c0.3,0.2,0.4,0.6,0.4,1v0.6c0.4-0.7,0.9-1.2,1.5-1.5c0.6-0.4,1.4-0.5,2.2-0.5c1.8,0,3.1,0.8,3.7,2.3
		c0.4-0.7,0.9-1.3,1.6-1.7c0.7-0.4,1.5-0.6,2.4-0.6C100.1,17.9,101.1,18.3,101.8,19.1z"/>
	<path class="st0" d="M106.3,15.3c-0.3-0.3-0.5-0.7-0.5-1.2c0-0.5,0.2-0.9,0.5-1.2c0.3-0.3,0.8-0.5,1.4-0.5c0.6,0,1,0.1,1.3,0.5
		c0.3,0.3,0.5,0.7,0.5,1.2c0,0.5-0.2,0.9-0.5,1.2c-0.3,0.3-0.8,0.5-1.4,0.5S106.6,15.6,106.3,15.3z M106.5,30.2
		c-0.3-0.3-0.4-0.6-0.4-1.1v-9.7c0-0.5,0.1-0.9,0.4-1.1s0.7-0.4,1.1-0.4c0.5,0,0.8,0.1,1.1,0.4s0.5,0.6,0.5,1.1v9.7
		c0,0.5-0.1,0.9-0.5,1.1c-0.3,0.3-0.7,0.4-1.1,0.4C107.2,30.6,106.8,30.5,106.5,30.2z"/>
	<path class="st0" d="M112.9,30.2c-0.3-0.3-0.4-0.6-0.4-1.1V14.1c0-0.5,0.1-0.9,0.4-1.1c0.3-0.3,0.7-0.4,1.1-0.4
		c0.5,0,0.8,0.1,1.1,0.4c0.3,0.2,0.5,0.6,0.5,1.1v14.9c0,0.5-0.1,0.9-0.5,1.1c-0.3,0.3-0.7,0.4-1.1,0.4
		C113.5,30.6,113.2,30.5,112.9,30.2z"/>
	<path class="st0" d="M119,15.3c-0.3-0.3-0.5-0.7-0.5-1.2c0-0.5,0.2-0.9,0.5-1.2c0.3-0.3,0.8-0.5,1.4-0.5c0.6,0,1,0.1,1.3,0.5
		c0.3,0.3,0.5,0.7,0.5,1.2c0,0.5-0.2,0.9-0.5,1.2c-0.3,0.3-0.8,0.5-1.4,0.5S119.3,15.6,119,15.3z M119.2,30.2
		c-0.3-0.3-0.4-0.6-0.4-1.1v-9.7c0-0.5,0.1-0.9,0.4-1.1s0.7-0.4,1.1-0.4c0.5,0,0.8,0.1,1.1,0.4s0.5,0.6,0.5,1.1v9.7
		c0,0.5-0.1,0.9-0.5,1.1c-0.3,0.3-0.7,0.4-1.1,0.4C119.9,30.6,119.5,30.5,119.2,30.2z"/>
	<path class="st0" d="M135.5,27.4c0.2,0.2,0.3,0.5,0.3,0.9c0,0.5-0.3,1-0.9,1.3c-0.6,0.3-1.2,0.6-1.9,0.8c-0.7,0.2-1.4,0.3-2.1,0.3
		c-2,0-3.5-0.6-4.7-1.7s-1.7-2.7-1.7-4.7c0-1.3,0.2-2.4,0.8-3.3s1.2-1.7,2.1-2.3c0.9-0.5,1.9-0.8,3.1-0.8c1.1,0,2.1,0.2,2.9,0.7
		c0.8,0.5,1.5,1.2,1.9,2.1c0.5,0.9,0.7,1.9,0.7,3.1c0,0.7-0.3,1.1-1,1.1h-7.4c0.1,1.2,0.4,2,1,2.5c0.6,0.5,1.4,0.8,2.4,0.8
		c0.5,0,1-0.1,1.4-0.2c0.4-0.1,0.9-0.3,1.4-0.6c0.5-0.3,0.9-0.4,1.1-0.4C135.1,27.1,135.4,27.2,135.5,27.4z M128.5,20.9
		c-0.5,0.5-0.8,1.3-0.9,2.3h5.7c0-1-0.3-1.8-0.8-2.3c-0.5-0.5-1.1-0.8-2-0.8C129.7,20.1,129,20.4,128.5,20.9z"/>
	<path class="st0" d="M149.9,22.9v6.2c0,0.5-0.1,0.8-0.4,1.1s-0.7,0.4-1.1,0.4c-0.5,0-0.9-0.1-1.2-0.4c-0.3-0.3-0.4-0.6-0.4-1.1
		v-6.2c0-0.9-0.2-1.5-0.5-1.9c-0.4-0.4-0.9-0.6-1.7-0.6c-0.9,0-1.6,0.3-2.2,0.9c-0.5,0.6-0.8,1.3-0.8,2.3v5.6c0,0.5-0.1,0.8-0.4,1.1
		c-0.3,0.3-0.7,0.4-1.2,0.4c-0.5,0-0.9-0.1-1.1-0.4s-0.4-0.6-0.4-1.1v-15c0-0.4,0.1-0.8,0.4-1.1c0.3-0.3,0.7-0.4,1.1-0.4
		c0.5,0,0.8,0.1,1.1,0.4c0.3,0.2,0.4,0.6,0.4,1v5.8c0.4-0.7,1-1.1,1.7-1.5c0.7-0.3,1.5-0.5,2.4-0.5
		C148.5,17.9,149.9,19.6,149.9,22.9z"/>
	<path class="st0" d="M163.9,18.3c0.3,0.3,0.4,0.6,0.4,1.1v9.7c0,0.4-0.1,0.8-0.4,1.1s-0.7,0.4-1.1,0.4c-0.5,0-0.8-0.1-1.1-0.4
		c-0.3-0.2-0.4-0.6-0.4-1v-0.6c-0.4,0.7-0.9,1.2-1.6,1.5s-1.4,0.5-2.2,0.5c-3,0-4.5-1.7-4.5-5.1v-6.2c0-0.5,0.1-0.8,0.4-1.1
		c0.3-0.3,0.7-0.4,1.1-0.4c0.5,0,0.9,0.1,1.2,0.4c0.3,0.3,0.4,0.6,0.4,1.1v6.2c0,0.9,0.2,1.5,0.5,1.9c0.4,0.4,0.9,0.6,1.7,0.6
		c0.9,0,1.6-0.3,2.1-0.9c0.5-0.6,0.8-1.3,0.8-2.3v-5.6c0-0.5,0.1-0.8,0.4-1.1c0.3-0.3,0.7-0.4,1.1-0.4
		C163.2,17.9,163.6,18.1,163.9,18.3z"/>
	<path class="st0" d="M168,30.2c-0.3-0.3-0.4-0.6-0.4-1.1V14.1c0-0.5,0.1-0.9,0.4-1.1c0.3-0.3,0.7-0.4,1.1-0.4
		c0.5,0,0.8,0.1,1.1,0.4c0.3,0.2,0.5,0.6,0.5,1.1v14.9c0,0.5-0.1,0.9-0.5,1.1c-0.3,0.3-0.7,0.4-1.1,0.4
		C168.7,30.6,168.3,30.5,168,30.2z"/>
	<path class="st0" d="M183.8,18.7c0.8,0.5,1.5,1.3,1.9,2.3c0.5,1,0.7,2.1,0.7,3.4c0,1.3-0.2,2.4-0.7,3.3c-0.5,1-1.1,1.7-1.9,2.2
		c-0.8,0.5-1.8,0.8-2.8,0.8c-0.9,0-1.6-0.2-2.3-0.6s-1.2-0.9-1.6-1.5v5.1c0,0.4-0.1,0.8-0.4,1c-0.3,0.2-0.7,0.4-1.1,0.4
		c-0.5,0-0.8-0.1-1.1-0.4c-0.3-0.3-0.4-0.6-0.4-1.1V19.4c0-0.5,0.1-0.8,0.4-1.1c0.3-0.3,0.6-0.4,1.1-0.4c0.5,0,0.8,0.1,1.1,0.4
		c0.3,0.3,0.4,0.6,0.4,1.1V20c0.4-0.7,0.9-1.2,1.6-1.6c0.7-0.4,1.5-0.6,2.4-0.6C182,17.9,183,18.2,183.8,18.7z M182.5,27.2
		c0.5-0.7,0.8-1.6,0.8-2.9c0-1.3-0.3-2.3-0.8-3c-0.6-0.7-1.3-1.1-2.3-1.1c-1,0-1.8,0.3-2.3,1c-0.5,0.7-0.8,1.7-0.8,2.9
		c0,1.3,0.3,2.2,0.8,2.9s1.3,1,2.3,1C181.1,28.2,181.9,27.9,182.5,27.2z"/>
</g>
<g>
	<defs>
		<rect id="SVGID_1_" y="0" width="195.5" height="52.2"/>
	</defs>
	<clipPath id="SVGID_2_">
		<use xlink:href="#SVGID_1_"  style="overflow:visible;"/>
	</clipPath>
	<path class="st1" d="M25.3,17.8c-2.5-1-5.5,0.6-6.7,3.6c-1.2,3-0.1,6.2,2.4,7.2c2.5,1,5.5-0.6,6.7-3.6C28.9,22,27.8,18.8,25.3,17.8
		"/>
	<path class="st1" d="M23.5,6.6c-12.1,0-22,9.9-22,22c0,1.8,0.2,3.5,0.6,5.1C2.8,37,4.3,40,6.3,42.5c4,5,10.2,8.3,17.2,8.3
		c12.2,0,22-9.9,22-22C45.5,16.5,35.6,6.6,23.5,6.6 M23.5,48.5c-6.4,0-12.1-3-15.7-7.7c0.3-0.3,0.7-0.7,1-1c0.6-0.6,1.4-1.2,2.2-1.8
		c0.8-0.6,1.8-1.2,2.7-1.6c1-0.4,1.9-0.7,2.9-0.7l0.2,0h0c0,0,0,0,0,0l0,0l0.1,0c0,0,0.1,0,0.1,0l0,0c0,0,0.1,0,0.2,0
		c0.1,0,0.1,0,0.2,0c0.3,0,0.6,0.1,0.9,0.1c0.7,0.1,1.4,0.3,2.2,0.5c1.5,0.4,3.1,0.9,4.8,1.4c1.6,0.5,3.3,0.9,5,1.3
		c1.7,0.3,3.4,0.6,5.1,0.6c0.9,0,1.7-0.1,2.6-0.2c0.9-0.2,1.7-0.4,2.4-0.9c0.2-0.1,0.4-0.2,0.6-0.4C37.7,44.3,31.1,48.5,23.5,48.5
		 M43.2,31.4c-0.2,0.9-0.6,1.9-1.2,2.8c-0.3,0.5-0.7,0.9-1.1,1.2c-0.4,0.3-0.9,0.6-1.5,0.8c-1.1,0.3-2.4,0.3-3.8,0
		c-1.4-0.3-2.8-0.8-4.2-1.4c-1.4-0.6-2.9-1.3-4.3-2c-1.5-0.7-2.9-1.5-4.5-2.3c-0.8-0.4-1.6-0.7-2.4-1.1c-0.4-0.2-0.9-0.3-1.3-0.5
		c-0.1,0-0.2-0.1-0.4-0.1c-0.1,0-0.2-0.1-0.4-0.1l-0.2,0l-0.1,0l0,0l-0.1,0c-0.1,0-0.3,0-0.4-0.1c-1.1-0.2-2.2-0.2-3.2-0.1
		c-1,0.1-1.9,0.3-2.8,0.5c-1.7,0.5-3.2,1.1-4.5,1.8c-1,0.5-2,1.1-2.8,1.6c-0.2-1.2-0.4-2.5-0.4-3.8c0-11,8.9-19.9,19.9-19.9
		c11,0,19.9,8.9,19.9,19.9C43.4,29.6,43.3,30.5,43.2,31.4"/>
	<path class="st2" d="M38,39.3c-0.9,0.2-1.7,0.2-2.6,0.2c-1.7,0-3.4-0.3-5.1-0.6c-1.7-0.3-3.4-0.8-5-1.2c-1.6-0.5-3.2-0.9-4.8-1.4
		c-0.8-0.2-1.5-0.4-2.2-0.5c-0.3-0.1-0.7-0.1-0.9-0.1c-0.1,0-0.1,0-0.2,0c-0.1,0-0.1,0-0.2,0l0,0c0,0,0,0-0.1,0l-0.1,0l0,0
		c0.1,0,0,0,0,0l0,0l-0.2,0c-0.9,0-1.9,0.3-2.9,0.7c-1,0.4-1.9,1-2.7,1.6c-0.8,0.6-1.6,1.2-2.2,1.8c-0.4,0.4-0.7,0.7-1,1
		c3.6,4.7,9.3,7.7,15.7,7.7c7.6,0,14.2-4.3,17.5-10.5c-0.2,0.1-0.4,0.3-0.6,0.4C39.6,38.8,38.8,39.1,38,39.3"/>
	<path class="st2" d="M23.5,8.8c-11,0-19.9,8.9-19.9,19.9c0,1.3,0.1,2.6,0.4,3.8c0.8-0.5,1.7-1.1,2.8-1.6c1.3-0.7,2.8-1.3,4.5-1.8
		c0.9-0.2,1.8-0.4,2.8-0.5c1-0.1,2.1-0.1,3.2,0.1c0.1,0,0.3,0,0.4,0.1l0.1,0l0,0l0.1,0l0.2,0c0.2,0,0.3,0.1,0.4,0.1
		c0.1,0,0.2,0.1,0.4,0.1c0.5,0.2,0.9,0.3,1.3,0.5c0.8,0.3,1.6,0.7,2.4,1.1c1.5,0.8,3,1.5,4.5,2.3c1.5,0.7,2.9,1.4,4.3,2
		c1.4,0.6,2.9,1.1,4.2,1.4c1.4,0.3,2.7,0.3,3.8,0c0.5-0.2,1-0.4,1.5-0.8c0.4-0.3,0.8-0.8,1.1-1.2c0.6-0.9,0.9-1.9,1.2-2.8
		c0.1-0.9,0.2-1.8,0.2-2.7C43.4,17.7,34.5,8.8,23.5,8.8 M27.7,25c-1.2,3-4.2,4.6-6.7,3.6c-2.5-1-3.6-4.2-2.4-7.2
		c1.2-3,4.2-4.6,6.7-3.6C27.8,18.8,28.9,22,27.7,25"/>
	<path class="st2" d="M23.5,5.2C10.5,5.2,0,15.7,0,28.7c0,2.1,0.3,4.2,0.8,6.1C1.3,36.6,2,38.4,2.9,40c4,7.3,11.7,12.2,20.6,12.2
		c13,0,23.5-10.5,23.5-23.5C47,15.7,36.5,5.2,23.5,5.2 M23.5,50.7c-6.9,0-13.1-3.2-17.2-8.3c-2-2.5-3.5-5.4-4.2-8.6
		c-0.4-1.7-0.6-3.4-0.6-5.1c0-12.2,9.9-22,22-22s22,9.9,22,22S35.6,50.7,23.5,50.7"/>
</g>
<g>
	<path class="st0" d="M65.4,37.5c0.1,0,0.2,0,0.3,0.1s0.2,0.2,0.2,0.3c0,0.1,0,0.1,0,0.2l-2.1,5.3c-0.1,0.1-0.1,0.2-0.2,0.3
		c-0.1,0.1-0.2,0.1-0.3,0.1c-0.1,0-0.2,0-0.3-0.1c-0.1-0.1-0.2-0.1-0.2-0.3L60.9,39l-1.7,4.4c0,0.1-0.1,0.2-0.2,0.3
		c-0.1,0.1-0.2,0.1-0.3,0.1c-0.1,0-0.2,0-0.3-0.1c-0.1-0.1-0.2-0.1-0.2-0.3L56,38.2c0-0.1,0-0.1,0-0.2c0-0.1,0.1-0.2,0.2-0.3
		c0.1-0.1,0.2-0.1,0.4-0.1c0.2,0,0.3,0.1,0.4,0.3l1.7,4.6l1.8-4.6c0.1-0.1,0.1-0.2,0.2-0.3c0.1-0.1,0.2-0.1,0.3-0.1
		c0.1,0,0.2,0,0.3,0.1c0.1,0.1,0.2,0.1,0.2,0.3l1.8,4.6l1.7-4.6C65,37.6,65.2,37.5,65.4,37.5z"/>
</g>
<g>
	<path class="st0" d="M72,42.5c0.1,0.1,0.1,0.2,0.1,0.3c0,0.2-0.1,0.4-0.4,0.6c-0.3,0.2-0.6,0.3-1,0.4s-0.7,0.1-1,0.1
		c-0.9,0-1.7-0.3-2.2-0.8c-0.6-0.6-0.8-1.3-0.8-2.3c0-0.6,0.1-1.2,0.4-1.7c0.2-0.5,0.6-0.9,1-1.1s0.9-0.4,1.5-0.4
		c0.8,0,1.4,0.3,1.9,0.8s0.7,1.2,0.7,2.1c0,0.2,0,0.3-0.1,0.4c-0.1,0.1-0.2,0.1-0.3,0.1h-4.1c0.1,1.4,0.8,2.2,2.1,2.2
		c0.3,0,0.6,0,0.8-0.1c0.2-0.1,0.5-0.2,0.8-0.4c0.2-0.1,0.4-0.2,0.4-0.2C71.8,42.4,71.9,42.4,72,42.5z M68.3,38.8
		c-0.3,0.3-0.5,0.8-0.6,1.4h3.6c0-0.6-0.2-1.1-0.5-1.4c-0.3-0.3-0.7-0.5-1.2-0.5C69,38.3,68.6,38.5,68.3,38.8z"/>
</g>
<g>
	<path class="st0" d="M81.4,43.1c0.1,0.1,0.1,0.2,0.1,0.3s0,0.2-0.1,0.3c-0.1,0.1-0.2,0.1-0.3,0.1h-4.4c-0.1,0-0.3,0-0.4-0.1
		c-0.1-0.1-0.1-0.2-0.1-0.3c0-0.1,0.1-0.3,0.2-0.4l3.7-4.5h-3.5c-0.1,0-0.3,0-0.3-0.1c-0.1-0.1-0.1-0.2-0.1-0.3c0-0.1,0-0.2,0.1-0.3
		c0.1-0.1,0.2-0.1,0.3-0.1h4.3c0.2,0,0.3,0,0.4,0.1c0.1,0.1,0.1,0.2,0.1,0.3c0,0.1-0.1,0.3-0.2,0.4L77.5,43H81
		C81.2,43,81.3,43,81.4,43.1z"/>
</g>
<g>
	<path class="st0" d="M82.7,36c-0.1-0.1-0.2-0.3-0.2-0.5c0-0.2,0.1-0.3,0.2-0.5c0.1-0.1,0.3-0.2,0.5-0.2c0.2,0,0.4,0.1,0.5,0.2
		c0.1,0.1,0.2,0.3,0.2,0.5c0,0.2-0.1,0.3-0.2,0.5s-0.3,0.2-0.5,0.2C83,36.2,82.9,36.1,82.7,36z M82.9,43.7c-0.1-0.1-0.1-0.2-0.1-0.4
		V38c0-0.2,0-0.3,0.1-0.4c0.1-0.1,0.2-0.1,0.4-0.1c0.2,0,0.3,0,0.4,0.1c0.1,0.1,0.1,0.2,0.1,0.4v5.3c0,0.2,0,0.3-0.1,0.4
		c-0.1,0.1-0.2,0.1-0.4,0.1C83.1,43.8,82.9,43.8,82.9,43.7z"/>
	<path class="st0" d="M83.7,46c-0.1-0.1-0.2-0.2-0.2-0.3c0-0.2,0.1-0.4,0.4-0.4l0.4,0c0.4,0,0.7-0.1,0.8-0.3s0.3-0.5,0.3-1V38
		c0-0.2,0-0.3,0.1-0.4c0.1-0.1,0.2-0.1,0.4-0.1c0.2,0,0.3,0,0.4,0.1c0.1,0.1,0.1,0.2,0.1,0.4v5.8c0,0.7-0.2,1.2-0.5,1.6
		s-0.8,0.6-1.5,0.6l-0.4,0C84,46.1,83.8,46.1,83.7,46z M85.5,36c-0.1-0.1-0.2-0.3-0.2-0.5c0-0.2,0.1-0.3,0.2-0.5
		c0.1-0.1,0.3-0.2,0.5-0.2c0.2,0,0.4,0.1,0.5,0.2c0.1,0.1,0.2,0.3,0.2,0.5c0,0.2-0.1,0.3-0.2,0.5s-0.3,0.2-0.5,0.2
		C85.8,36.2,85.6,36.1,85.5,36z"/>
	<path class="st0" d="M93.5,39.9v3.4c0,0.2,0,0.3-0.1,0.4c-0.1,0.1-0.2,0.1-0.4,0.1c-0.2,0-0.3,0-0.4-0.1c-0.1-0.1-0.1-0.2-0.1-0.4
		V40c0-0.6-0.1-1-0.3-1.2c-0.2-0.3-0.6-0.4-1.1-0.4c-0.6,0-1,0.2-1.3,0.5c-0.3,0.3-0.5,0.8-0.5,1.4v3.1c0,0.2,0,0.3-0.1,0.4
		c-0.1,0.1-0.2,0.1-0.4,0.1c-0.2,0-0.3,0-0.4-0.1c-0.1-0.1-0.1-0.2-0.1-0.4V38c0-0.2,0-0.3,0.1-0.4c0.1-0.1,0.2-0.1,0.4-0.1
		c0.2,0,0.3,0,0.4,0.1s0.1,0.2,0.1,0.4v0.6c0.2-0.4,0.5-0.7,0.8-0.9c0.4-0.2,0.8-0.3,1.2-0.3C92.8,37.5,93.5,38.3,93.5,39.9z"/>
	<path class="st0" d="M103.3,42.5c0.1,0.1,0.1,0.2,0.1,0.3c0,0.2-0.1,0.4-0.4,0.6c-0.3,0.2-0.6,0.3-1,0.4s-0.7,0.1-1,0.1
		c-0.9,0-1.7-0.3-2.2-0.8s-0.8-1.3-0.8-2.3c0-0.6,0.1-1.2,0.4-1.7c0.2-0.5,0.6-0.9,1-1.1c0.4-0.3,0.9-0.4,1.5-0.4
		c0.8,0,1.4,0.3,1.9,0.8s0.7,1.2,0.7,2.1c0,0.2,0,0.3-0.1,0.4c-0.1,0.1-0.2,0.1-0.3,0.1h-4.1C99,42.3,99.7,43,101,43
		c0.3,0,0.6,0,0.8-0.1c0.2-0.1,0.5-0.2,0.8-0.4c0.2-0.1,0.4-0.2,0.4-0.2C103.1,42.4,103.2,42.4,103.3,42.5z M99.5,38.8
		c-0.3,0.3-0.5,0.8-0.6,1.4h3.6c0-0.6-0.2-1.1-0.5-1.4c-0.3-0.3-0.7-0.5-1.2-0.5C100.3,38.3,99.9,38.5,99.5,38.8z"/>
</g>
<g>
	<path class="st0" d="M108.3,38c0,0.1,0,0.2-0.1,0.3c-0.1,0.1-0.2,0.1-0.4,0.1l-0.4,0c-0.6,0.1-1,0.2-1.3,0.6
		c-0.3,0.3-0.4,0.8-0.4,1.2v3.1c0,0.2,0,0.3-0.1,0.4c-0.1,0.1-0.2,0.1-0.4,0.1c-0.2,0-0.3,0-0.4-0.1s-0.1-0.2-0.1-0.4V38
		c0-0.2,0.1-0.3,0.2-0.4c0.1-0.1,0.2-0.1,0.4-0.1c0.1,0,0.2,0,0.3,0.1c0.1,0.1,0.1,0.2,0.1,0.4v0.7c0.2-0.4,0.4-0.7,0.7-0.8
		s0.7-0.3,1.1-0.3l0.2,0C108.1,37.5,108.3,37.6,108.3,38z"/>
</g>
<g>
</g>
<g>
	<path class="st0" d="M116.9,37.5c0.1,0,0.2,0,0.3,0.1s0.2,0.2,0.2,0.3c0,0.1,0,0.1-0.1,0.2l-2.5,5.3c-0.1,0.1-0.1,0.2-0.2,0.3
		c-0.1,0.1-0.2,0.1-0.3,0.1c-0.1,0-0.2,0-0.3-0.1c-0.1-0.1-0.2-0.1-0.2-0.3l-2.4-5.3c0-0.1-0.1-0.1-0.1-0.2c0-0.1,0.1-0.2,0.2-0.3
		s0.2-0.1,0.4-0.1c0.1,0,0.2,0,0.2,0.1c0.1,0.1,0.1,0.1,0.2,0.2l2.1,4.7l2.1-4.7C116.6,37.6,116.7,37.5,116.9,37.5z"/>
</g>
<g>
	<path class="st0" d="M119.4,43.5c-0.4-0.3-0.8-0.6-1-1.1c-0.2-0.5-0.4-1-0.4-1.7c0-0.6,0.1-1.2,0.4-1.7c0.2-0.5,0.6-0.9,1-1.1
		c0.4-0.3,1-0.4,1.5-0.4c0.6,0,1.1,0.1,1.5,0.4c0.4,0.3,0.8,0.6,1,1.1c0.2,0.5,0.4,1,0.4,1.7c0,0.6-0.1,1.2-0.4,1.7
		c-0.2,0.5-0.6,0.9-1,1.1c-0.4,0.3-1,0.4-1.5,0.4C120.3,43.9,119.8,43.7,119.4,43.5z M122.3,42.4c0.3-0.4,0.5-1,0.5-1.7
		c0-0.7-0.2-1.3-0.5-1.7c-0.3-0.4-0.8-0.6-1.4-0.6s-1.1,0.2-1.4,0.6c-0.3,0.4-0.5,1-0.5,1.7c0,0.8,0.2,1.3,0.5,1.7s0.8,0.6,1.4,0.6
		S122,42.8,122.3,42.4z"/>
	<path class="st0" d="M126.2,43.5c-0.4-0.3-0.8-0.6-1-1.1c-0.2-0.5-0.4-1-0.4-1.7c0-0.6,0.1-1.2,0.4-1.7c0.2-0.5,0.6-0.9,1-1.1
		c0.4-0.3,1-0.4,1.5-0.4c0.6,0,1.1,0.1,1.5,0.4c0.4,0.3,0.8,0.6,1,1.1c0.2,0.5,0.4,1,0.4,1.7c0,0.6-0.1,1.2-0.4,1.7
		c-0.2,0.5-0.6,0.9-1,1.1c-0.4,0.3-1,0.4-1.5,0.4C127.2,43.9,126.7,43.7,126.2,43.5z M129.1,42.4c0.3-0.4,0.5-1,0.5-1.7
		c0-0.7-0.2-1.3-0.5-1.7c-0.3-0.4-0.8-0.6-1.4-0.6s-1.1,0.2-1.4,0.6c-0.3,0.4-0.5,1-0.5,1.7c0,0.8,0.2,1.3,0.5,1.7s0.8,0.6,1.4,0.6
		S128.8,42.8,129.1,42.4z"/>
	<path class="st0" d="M135.6,38c0,0.1,0,0.2-0.1,0.3c-0.1,0.1-0.2,0.1-0.4,0.1l-0.4,0c-0.6,0.1-1,0.2-1.3,0.6
		c-0.3,0.3-0.4,0.8-0.4,1.2v3.1c0,0.2,0,0.3-0.1,0.4c-0.1,0.1-0.2,0.1-0.4,0.1c-0.2,0-0.3,0-0.4-0.1s-0.1-0.2-0.1-0.4V38
		c0-0.2,0.1-0.3,0.2-0.4c0.1-0.1,0.2-0.1,0.4-0.1c0.1,0,0.2,0,0.3,0.1c0.1,0.1,0.1,0.2,0.1,0.4v0.7c0.2-0.4,0.4-0.7,0.7-0.8
		s0.7-0.3,1.1-0.3l0.2,0C135.4,37.5,135.6,37.6,135.6,38z"/>
	<path class="st0" d="M137.6,46c-0.1-0.1-0.2-0.2-0.2-0.3c0-0.2,0.1-0.4,0.4-0.4l0.4,0c0.4,0,0.7-0.1,0.8-0.3s0.3-0.5,0.3-1V38
		c0-0.2,0-0.3,0.1-0.4c0.1-0.1,0.2-0.1,0.4-0.1c0.2,0,0.3,0,0.4,0.1c0.1,0.1,0.1,0.2,0.1,0.4v5.8c0,0.7-0.2,1.2-0.5,1.6
		c-0.3,0.4-0.8,0.6-1.5,0.6l-0.4,0C137.9,46.1,137.7,46.1,137.6,46z M139.4,36c-0.1-0.1-0.2-0.3-0.2-0.5c0-0.2,0.1-0.3,0.2-0.5
		c0.1-0.1,0.3-0.2,0.5-0.2c0.2,0,0.4,0.1,0.5,0.2c0.1,0.1,0.2,0.3,0.2,0.5c0,0.2-0.1,0.3-0.2,0.5s-0.3,0.2-0.5,0.2
		C139.7,36.2,139.5,36.1,139.4,36z"/>
	<path class="st0" d="M143.2,43.5c-0.4-0.3-0.8-0.6-1-1.1c-0.2-0.5-0.4-1-0.4-1.7c0-0.6,0.1-1.2,0.4-1.7c0.2-0.5,0.6-0.9,1-1.1
		c0.4-0.3,1-0.4,1.5-0.4c0.6,0,1.1,0.1,1.5,0.4c0.4,0.3,0.8,0.6,1,1.1c0.2,0.5,0.4,1,0.4,1.7c0,0.6-0.1,1.2-0.4,1.7
		c-0.2,0.5-0.6,0.9-1,1.1c-0.4,0.3-1,0.4-1.5,0.4C144.1,43.9,143.6,43.7,143.2,43.5z M146.1,42.4c0.3-0.4,0.5-1,0.5-1.7
		c0-0.7-0.2-1.3-0.5-1.7c-0.3-0.4-0.8-0.6-1.4-0.6s-1.1,0.2-1.4,0.6c-0.3,0.4-0.5,1-0.5,1.7c0,0.8,0.2,1.3,0.5,1.7s0.8,0.6,1.4,0.6
		S145.8,42.8,146.1,42.4z"/>
</g>
<g>
	<path class="st0" d="M154,37.7c0.1,0.1,0.1,0.2,0.1,0.4v5.3c0,0.1,0,0.3-0.1,0.4c-0.1,0.1-0.2,0.1-0.4,0.1c-0.2,0-0.3,0-0.4-0.1
		c-0.1-0.1-0.1-0.2-0.1-0.3v-0.6c-0.2,0.4-0.5,0.7-0.8,0.8s-0.7,0.3-1.2,0.3c-0.7,0-1.3-0.2-1.7-0.6c-0.4-0.4-0.6-1-0.6-1.8V38
		c0-0.2,0-0.3,0.1-0.4c0.1-0.1,0.2-0.1,0.4-0.1c0.2,0,0.3,0,0.4,0.1s0.1,0.2,0.1,0.4v3.4c0,0.5,0.1,0.9,0.3,1.2
		c0.2,0.3,0.6,0.4,1,0.4c0.5,0,1-0.2,1.3-0.5c0.3-0.3,0.5-0.8,0.5-1.4V38c0-0.2,0-0.3,0.1-0.4c0.1-0.1,0.2-0.1,0.4-0.1
		C153.7,37.5,153.9,37.6,154,37.7z"/>
</g>
</svg>
